<?xml version="1.0" encoding="UTF-8"?>
<svg xmlns="http://www.w3.org/2000/svg" xmlns:xlink="http://www.w3.org/1999/xlink" width="504pt" height="288pt" viewBox="0 0 504 288" version="1.1">
<g id="surface14">
<rect x="0" y="0" width="504" height="288" style="fill:rgb(100%,100%,100%);fill-opacity:1;stroke:none;"/>
<path style="fill:none;stroke-width:0.75;stroke-linecap:round;stroke-linejoin:round;stroke:rgb(0%,0%,0%);stroke-opacity:1;stroke-miterlimit:10;" d="M 105.332031 144 L 398.667969 48 "/>
<path style="fill:none;stroke-width:0.75;stroke-linecap:round;stroke-linejoin:round;stroke:rgb(0%,0%,0%);stroke-opacity:1;stroke-miterlimit:10;" d="M 105.332031 144 L 398.667969 240 "/>
<path style="fill:none;stroke-width:0.75;stroke-linecap:round;stroke-linejoin:round;stroke:rgb(0%,0%,0%);stroke-opacity:1;stroke-miterlimit:10;" d="M 252 192 L 398.667969 144 "/>
<path style="fill:none;stroke-width:0.75;stroke-linecap:round;stroke-linejoin:round;stroke:rgb(0%,0%,0%);stroke-opacity:1;stroke-miterlimit:10;" d="M 252 96 L 398.667969 144 "/>
<path style="fill:none;stroke-width:0.75;stroke-linecap:round;stroke-linejoin:round;stroke:rgb(0%,0%,0%);stroke-opacity:1;stroke-miterlimit:10;" d="M 398.667969 240 L 398.667969 240 "/>
<path style="fill:none;stroke-width:0.75;stroke-linecap:round;stroke-linejoin:round;stroke:rgb(0%,0%,0%);stroke-opacity:1;stroke-miterlimit:10;" d="M 398.667969 48 L 398.667969 48 "/>
<path style="fill-rule:nonzero;fill:rgb(100%,100%,100%);fill-opacity:1;stroke-width:0.75;stroke-linecap:round;stroke-linejoin:round;stroke:rgb(0%,0%,0%);stroke-opacity:1;stroke-miterlimit:10;" d="M 126.933594 144 C 126.933594 155.929688 117.261719 165.601563 105.332031 165.601563 C 93.402344 165.601563 83.734375 155.929688 83.734375 144 C 83.734375 132.070313 93.402344 122.398438 105.332031 122.398438 C 117.261719 122.398438 126.933594 132.070313 126.933594 144 "/>
<path style="fill-rule:evenodd;fill:rgb(100%,100%,100%);fill-opacity:1;stroke-width:0.75;stroke-linecap:round;stroke-linejoin:round;stroke:rgb(0%,0%,0%);stroke-opacity:1;stroke-miterlimit:10;" d="M 273.601563 96 C 273.601563 107.929688 263.929688 117.601563 252 117.601563 C 240.070313 117.601563 230.398438 107.929688 230.398438 96 C 230.398438 84.070313 240.070313 74.398438 252 74.398438 C 263.929688 74.398438 273.601563 84.070313 273.601563 96 "/>
<path style="fill-rule:evenodd;fill:rgb(100%,100%,100%);fill-opacity:1;stroke-width:0.75;stroke-linecap:round;stroke-linejoin:round;stroke:rgb(0%,0%,0%);stroke-opacity:1;stroke-miterlimit:10;" d="M 420.265625 48 C 420.265625 59.929688 410.597656 69.601563 398.667969 69.601563 C 386.738281 69.601563 377.066406 59.929688 377.066406 48 C 377.066406 36.070313 386.738281 26.398438 398.667969 26.398438 C 410.597656 26.398438 420.265625 36.070313 420.265625 48 "/>
<path style="fill-rule:evenodd;fill:rgb(100%,100%,100%);fill-opacity:1;stroke-width:0.75;stroke-linecap:round;stroke-linejoin:round;stroke:rgb(0%,0%,0%);stroke-opacity:1;stroke-miterlimit:10;" d="M 273.601563 192 C 273.601563 203.929688 263.929688 213.601563 252 213.601563 C 240.070313 213.601563 230.398438 203.929688 230.398438 192 C 230.398438 180.070313 240.070313 170.398438 252 170.398438 C 263.929688 170.398438 273.601563 180.070313 273.601563 192 "/>
<path style="fill-rule:evenodd;fill:rgb(100%,100%,100%);fill-opacity:1;stroke-width:0.75;stroke-linecap:round;stroke-linejoin:round;stroke:rgb(0%,0%,0%);stroke-opacity:1;stroke-miterlimit:10;" d="M 420.265625 144 C 420.265625 155.929688 410.597656 165.601563 398.667969 165.601563 C 386.738281 165.601563 377.066406 155.929688 377.066406 144 C 377.066406 132.070313 386.738281 122.398438 398.667969 122.398438 C 410.597656 122.398438 420.265625 132.070313 420.265625 144 "/>
<path style="fill-rule:evenodd;fill:rgb(100%,100%,100%);fill-opacity:1;stroke-width:0.75;stroke-linecap:round;stroke-linejoin:round;stroke:rgb(0%,0%,0%);stroke-opacity:1;stroke-miterlimit:10;" d="M 420.265625 240 C 420.265625 251.929688 410.597656 261.601563 398.667969 261.601563 C 386.738281 261.601563 377.066406 251.929688 377.066406 240 C 377.066406 228.070313 386.738281 218.398438 398.667969 218.398438 C 410.597656 218.398438 420.265625 228.070313 420.265625 240 "/>
</g>
</svg>
